<svg id="Layer_1" enable-background="new 0 0 509.472 509.472" height="512" viewBox="0 0 509.472 509.472" width="512" xmlns="http://www.w3.org/2000/svg"><g><path d="m402.056 80.26c-4.45-14.357-17.833-24.786-33.654-24.786-19.456 0-35.228 15.772-35.228 35.228s15.772 35.228 35.228 35.228c12.927 0 24.221-6.967 30.35-17.347-.727-3.087-1.124-6.3-1.124-9.606 0-6.725 1.602-13.079 4.428-18.717z"/><circle cx="83.273" cy="90.702" r="35.228"/><path d="m137.741 227.107c3.185 2.716 7.227 4.198 11.392 4.198.329 0 .658-.009.988-.028l69.333-3.905c9.68-.545 17.086-8.835 16.541-18.516-.545-9.68-8.819-17.075-18.516-16.541l-62.308 3.509-34.489-29.414 7.422 3.765v-9.482c0-13.143-10.654-23.797-23.797-23.797h-42.438c-13.143 0-23.797 10.654-23.797 23.797v121.864l-2.543 60.774-33.986 82.488c-4.292 10.416.673 22.338 11.089 26.629 10.503 4.327 22.373-.759 26.629-11.089l35.354-85.811c.906-2.199 1.421-4.541 1.52-6.917l2.72-64.986c.012-.288-.008-.568-.007-.853h6.629l22.512 65.775 7.269 86.73c.938 11.198 10.77 19.562 22.029 18.622 11.226-.941 19.563-10.804 18.622-22.029l-7.479-89.245c-.14-1.67-.485-3.316-1.028-4.901l-19.298-56.382v-46.628l-30.205-41.605z"/><path d="m381.412 432.796 3.3-77.478c.09-2.112.409-4.208.95-6.252l3.792-14.313c-10.707-.938-18.159-11.279-16.178-22.105l28.268-154.494c1.579-8.632 6.583-16.819 13.346-21.128l-76.008-.128c-13.143 0-23.797 10.654-23.797 23.797v12.932l-11.369 7.847-63.433 7.516c4.796 5.012 7.903 11.688 8.324 19.157.316 5.617-.929 10.959-3.351 15.612l66.916-7.928c.99-.117 1.964-.323 2.914-.604v12.979 51.583l-19.15 52.21c-1.32 3.6-1.599 7.499-.805 11.25l20.027 94.568c2.326 10.981 13.118 18.068 24.181 15.729 11.02-2.334 18.062-13.16 15.729-24.181l-18.812-88.828 21.18-57.745h6.942c-.094 1.617-.049 104.268-.06 150.802 0 12.878 11.826 22.598 24.54 19.974-4.92-5.49-7.785-12.827-7.446-20.772z"/><path d="m501.431 164.015-12.011-7.748c.153.622.295 1.249.412 1.886l6.861 37.499c3.969-1.122 7.563-3.63 9.974-7.368 5.256-8.147 2.912-19.013-5.236-24.269z"/><ellipse cx="439.535" cy="98.976" rx="31.723" ry="31.723" transform="matrix(.383 -.924 .924 .383 179.891 467.177)"/><path d="m485.142 324.644h15.23c4.92 0 8.677-4.886 7.711-10.163l-28.268-154.494c-1.717-9.386-9.29-16.137-18.136-16.137-12.617 0-20.612 0-31.98 0-8.827 0-16.422 6.771-18.136 16.137l-28.269 154.494c-.964 5.268 2.764 10.163 7.711 10.163h12.834l-7.629 28.797c-.34 1.282-.54 2.597-.596 3.922l-3.3 77.478c-.432 10.135 7.435 18.701 17.569 19.133.267.011.531.017.795.017 9.783 0 17.917-7.718 18.337-17.586l3.215-75.485 9.61-36.276h6.565v38.989c0 1.425.166 2.845.494 4.231l17.041 71.986c2 8.449 9.538 14.141 17.858 14.141 11.846 0 20.623-11.053 17.889-22.603l-16.546-69.9c.001-9.313.001-27.538.001-36.844zm-84.972-51.816 27.693-59.512 12.038-32.708-3.294 39.61-26.601 57.138c-3.429 7.451-.169 16.272 7.282 19.702 7.423 3.416 16.259.198 19.702-7.282l27.693-59.513c.723-1.571 1.166-3.256 1.309-4.979l3.51-42.214 7.282 43.111c.659 3.898-1.353 6.209-2.264 8.61l-27.693 59.512c-5.93 12.884-21.182 18.521-34.066 12.591s-18.521-21.182-12.591-34.066z"/></g></svg>